<?xml version="1.0" encoding="UTF-8"?>
<svg width="180px" height="180px" viewBox="0 0 180 180" version="1.1" xmlns="http://www.w3.org/2000/svg" xmlns:xlink="http://www.w3.org/1999/xlink">
    <!-- Generator: Sketch 43.1 (39012) - http://www.bohemiancoding.com/sketch -->
    <title>bar</title>
    <desc>Created with Sketch.</desc>
    <defs></defs>
    <g id="Page-1" stroke="none" stroke-width="1" fill="none" fill-rule="evenodd">
        <g id="bar" fill="#FFFFFF">
            <g id="Page-1" transform="translate(45.000000, 20.000000)">
                <path d="M83.4,138.999401 L62.4,138.999401 C61.3284,138.999401 60.4284,138.192961 60.3126,137.128892 L55.8126,95.788375 C55.6872,94.6368319 56.52,93.6021207 57.6732,93.4775 C58.8258,93.3546767 59.8626,94.1832845 59.9874,95.3354267 L64.2846,134.805435 L81.5154,134.805435 L85.8126,95.3354267 C85.9374,94.1838836 86.976,93.3534784 88.1268,93.4775 C89.28,93.6021207 90.1128,94.6368319 89.9874,95.788375 L85.4874,137.128892 C85.3716,138.192961 84.4716,138.999401 83.4,138.999401" id="Fill-1"></path>
                <g id="Group-5" transform="translate(0.000000, 0.598539)">
                    <path d="M40.10334,134.206897 L10.89594,134.206897 C7.20414,134.206897 4.19994,131.207013 4.19994,127.520517 L4.19994,76.8046897 C4.99854,76.9041466 5.60454,77.0557284 6.25614,77.2234871 C7.47294,77.5344397 8.85234,77.887931 11.45634,77.887931 C14.06154,77.887931 15.44094,77.5344397 16.65774,77.2234871 C17.77554,76.9365 18.74094,76.6896552 20.81574,76.6896552 C22.89114,76.6896552 23.85714,76.9370991 24.97494,77.2234871 C26.19174,77.5344397 27.57114,77.887931 30.17634,77.887931 C32.78214,77.887931 34.16154,77.5344397 35.37894,77.2234871 C36.49674,76.9370991 37.46334,76.6896552 39.53874,76.6896552 C41.61414,76.6896552 42.57954,76.9365 43.69734,77.2234871 C44.53554,77.4373793 45.46074,77.6692457 46.79994,77.7944655 L46.79994,127.520517 C46.79994,131.207013 43.79574,134.206897 40.10334,134.206897 M45.87834,48.0664397 L39.40134,44.024056 C37.59534,42.8964784 36.42534,40.957069 36.27174,38.8367198 L33.59454,1.94540086 C33.51054,0.789663793 32.49714,-0.0700991379 31.34814,0.00539224138 C30.19134,0.0886724138 29.32134,1.09342672 29.40534,2.24856466 L32.08254,39.1398836 C32.33274,42.590319 34.23654,45.7459784 37.17534,47.5799397 L43.65294,51.6223233 C45.62334,52.8523534 46.79994,54.9721034 46.79994,57.2931638 L46.79994,73.578931 C46.00014,73.4794741 45.39294,73.3272931 44.74074,73.1601336 C43.52334,72.849181 42.14334,72.4956897 39.53874,72.4956897 C36.93294,72.4956897 35.55354,72.849181 34.33614,73.1601336 C33.21774,73.4465216 32.25174,73.6939655 30.17634,73.6939655 C28.10154,73.6939655 27.13614,73.4471207 26.01774,73.1601336 C24.80094,72.849181 23.42094,72.4956897 20.81574,72.4956897 C18.21114,72.4956897 16.83174,72.849181 15.61494,73.1601336 C14.49654,73.4471207 13.53114,73.6939655 11.45634,73.6939655 C9.38214,73.6939655 8.41674,73.4471207 7.30014,73.1601336 C6.46254,72.9462414 5.53794,72.714375 4.19994,72.5891552 L4.19994,57.2931638 C4.19994,54.9721034 5.37654,52.8523534 7.34634,51.6223233 L13.82454,47.5799397 C16.76274,45.7459784 18.66594,42.5909181 18.91734,39.1398836 L21.59454,2.24856466 C21.67854,1.09342672 20.80854,0.0886724138 19.65174,0.00539224138 C18.49734,-0.0718965517 17.48934,0.790262931 17.40534,1.94540086 L14.72814,38.8361207 C14.57394,40.957069 13.40394,42.8964784 11.59854,44.024056 L5.12094,48.0664397 C1.91454,50.0669612 -6e-05,53.5161983 -6e-05,57.2931638 L-6e-05,127.520517 C-6e-05,133.520284 4.88814,138.400862 10.89594,138.400862 L40.10334,138.400862 C46.11174,138.400862 50.99994,133.520284 50.99994,127.520517 L50.99994,57.2931638 C50.99994,53.5167974 49.08534,50.0669612 45.87834,48.0664397" id="Fill-3"></path>
                </g>
            </g>
        </g>
    </g>
</svg>