<?xml version="1.0" encoding="UTF-8"?>
<svg width="180px" height="180px" viewBox="0 0 180 180" version="1.1" xmlns="http://www.w3.org/2000/svg" xmlns:xlink="http://www.w3.org/1999/xlink">
    <!-- Generator: Sketch 43.1 (39012) - http://www.bohemiancoding.com/sketch -->
    <title>cafe</title>
    <desc>Created with Sketch.</desc>
    <defs></defs>
    <g id="Page-1" stroke="none" stroke-width="1" fill="none" fill-rule="evenodd">
        <g id="cafe" fill="#FFFFFF">
            <g id="Page-1" transform="translate(29.000000, 61.000000)">
                <path d="M99.35814,58 L2.10834,58 C0.94854,58 0.00834,57.0532708 0.00834,55.8854167 C0.00834,54.7175625 0.94854,53.7708333 2.10834,53.7708333 L99.35814,53.7708333 C100.51794,53.7708333 101.45814,54.7175625 101.45814,55.8854167 C101.45814,57.0532708 100.51794,58 99.35814,58" id="Fill-4"></path>
                <g id="Group-3">
                    <path d="M114.61182,32.0308625 C111.94182,34.8233208 108.24942,36.5041125 104.21622,36.7645083 C100.34502,37.0152375 96.57102,35.8926958 93.64362,33.6669458 C98.96622,25.5215708 100.72122,16.1575917 101.25162,9.7189875 C101.66082,9.66219583 102.07242,9.61325833 102.48582,9.586675 C110.73342,9.05077917 117.84402,14.71605 118.32042,22.208925 C118.54902,25.8025083 117.23202,29.2909667 114.61182,32.0308625 M86.85042,35.5900083 C80.54202,42.4418625 71.51202,45.916425 60.01242,45.916425 L41.45382,45.916425 C29.96502,45.916425 20.94162,42.4485083 14.63322,35.6087375 C5.03682,25.2025708 4.19502,9.659175 4.21482,4.228925 L97.25442,4.228925 C97.25862,5.04515417 97.24242,6.09338333 97.18062,7.31440417 C97.07622,7.64125833 97.05102,7.99590417 97.11942,8.354175 C96.64122,15.4114458 94.61382,27.15705 86.85042,35.5900083 M122.51202,21.9388625 C121.88682,12.1187375 112.78062,4.68869583 102.21822,5.3653625 C101.96502,5.381675 101.71242,5.4052375 101.46042,5.4306125 C101.48682,3.4332375 101.40102,2.1608625 101.38542,1.95484167 C101.30202,0.8522375 100.38942,-0.000241666667 99.29142,-0.000241666667 L2.17482,-0.000241666667 C1.07682,-0.000241666667 0.16422,0.8522375 0.08082,1.95484167 C0.01302,2.86350833 -1.44498,24.3651958 11.53602,38.4646333 C18.67182,46.2160917 28.73802,50.1455917 41.45382,50.1455917 L60.01242,50.1455917 C72.72822,50.1455917 82.79502,46.2160917 89.93022,38.4646333 C90.35142,38.0078833 90.75582,37.5420708 91.14642,37.0702167 C94.52682,39.6264458 98.76702,41.0281125 103.15542,41.0281125 C103.59702,41.0281125 104.04102,41.0136125 104.48442,40.9852167 C109.56762,40.6571542 114.23862,38.5190083 117.63702,34.9640917 C121.08582,31.358425 122.81682,26.7317167 122.51202,21.9388625" id="Fill-1"></path>
                </g>
            </g>
        </g>
    </g>
</svg>