<?xml version="1.0" encoding="UTF-8"?>
<svg width="180px" height="180px" viewBox="0 0 180 180" version="1.1" xmlns="http://www.w3.org/2000/svg" xmlns:xlink="http://www.w3.org/1999/xlink">
    <!-- Generator: Sketch 43.1 (39012) - http://www.bohemiancoding.com/sketch -->
    <title>fast food</title>
    <desc>Created with Sketch.</desc>
    <defs>
        <polygon id="path-1" points="88.1142538 11.3754491 88.1142538 0.0754491018 0.348309645 0.0754491018 0.348309645 11.3754491 88.1142538 11.3754491"></polygon>
        <polygon id="path-3" points="-2.67375538e-18 99.401018 -2.67375538e-18 0.207932654 57.6809756 0.207932654 57.6809756 99.401018 -1.58018943e-15 99.401018"></polygon>
    </defs>
    <g id="Page-1" stroke="none" stroke-width="1" fill="none" fill-rule="evenodd">
        <g id="fast-food">
            <g id="Page-1" transform="translate(31.000000, 40.000000)">
                <path d="M33.9742365,52.1675449 L113.190572,52.1675449 C112.995303,50.8495808 112.387932,48.9244311 110.651475,46.8908982 C106.840135,42.4286228 97.3156782,37.1094611 73.5815056,37.1094611 C49.6688355,37.1094611 40.1635462,42.500479 36.4001249,47.0232335 C34.7523178,49.0040719 34.1671096,50.8801198 33.9742365,52.1675449 M115.301993,56.3591617 L31.8610183,56.3591617 C30.849932,56.3591617 29.9838,55.6382036 29.7993127,54.6447904 C29.7609777,54.4364072 28.9026325,49.479521 33.1769878,44.342994 C39.4842975,36.7615569 53.0788558,32.9178443 73.5815056,32.9178443 C94.0847543,32.9178443 107.678714,36.7615569 113.986023,44.342994 C118.260379,49.479521 117.402034,54.4364072 117.363698,54.6447904 C117.179211,55.6382036 116.313079,56.3591617 115.301993,56.3591617" id="Fill-1" fill="#FFFFFF"></path>
                <path d="M35.2570223,89.3330539 C38.0932152,91.3635928 46.8431848,94.7665868 73.581266,94.7665868 C100.319946,94.7665868 109.069317,91.3635928 111.906109,89.3330539 L35.2570223,89.3330539 Z M73.581266,98.9582036 C48.9546061,98.9582036 34.523865,96.1665868 30.6903624,90.6605988 C29.2408193,88.5779641 29.7733168,86.8372455 29.8949107,86.5091018 C30.1997939,85.6869461 30.983865,85.1414371 31.8607787,85.1414371 L115.302352,85.1414371 C116.179266,85.1414371 116.963337,85.6869461 117.26822,86.5091018 C117.389814,86.8372455 117.922312,88.5779641 116.472769,90.6605988 C112.638667,96.1665868 98.2085249,98.9582036 73.581266,98.9582036 L73.581266,98.9582036 Z" id="Fill-3" fill="#FFFFFF"></path>
                <path d="M101.085688,68.6214371 C96.8400843,68.6214371 94.5908964,66.6783234 92.7843584,65.1172455 C91.1784802,63.7298204 89.9098305,62.6334132 87.2251807,62.6334132 C84.5411299,62.6334132 83.2730792,63.7298204 81.667201,65.1172455 C79.860064,66.6783234 77.6126731,68.6214371 73.367668,68.6214371 C69.1226629,68.6214371 66.8740741,66.6783234 65.067536,65.1172455 C63.4616579,63.7298204 62.1936071,62.6334132 59.5101553,62.6334132 C56.8261046,62.6334132 55.5580538,63.7298204 53.9527746,65.1166467 C52.1456376,66.6783234 49.8976477,68.6214371 45.6520437,68.6214371 C41.4070386,68.6214371 39.1584497,66.6783234 37.3525107,65.1172455 C35.7466325,63.7298204 34.4785817,62.6334132 31.794531,62.6334132 C30.6372924,62.6334132 29.6980843,61.6950898 29.6980843,60.5376048 C29.6980843,59.3801198 30.6372924,58.4417964 31.794531,58.4417964 C36.039536,58.4417964 38.2881249,60.3849102 40.0946629,61.945988 C41.6999421,63.3334132 42.9685919,64.4298204 45.6520437,64.4298204 C48.3366934,64.4298204 49.6047442,63.3334132 51.2100234,61.945988 C53.0171604,60.3849102 55.2651503,58.4417964 59.5101553,58.4417964 C63.7551604,58.4417964 66.0037492,60.3849102 67.8096883,61.945988 C69.4155665,63.3334132 70.6836173,64.4298204 73.367668,64.4298204 C76.0511198,64.4298204 77.3191706,63.3334132 78.9250487,61.9465868 C80.7321858,60.3849102 82.9795766,58.4417964 87.2251807,58.4417964 C91.4707848,58.4417964 93.7193736,60.3849102 95.5265107,61.945988 C97.1317898,63.3334132 98.4010386,64.4298204 101.085688,64.4298204 C103.769739,64.4298204 105.038988,63.3334132 106.644267,61.945988 C108.451404,60.3849102 110.699993,58.4417964 114.945597,58.4417964 C116.102836,58.4417964 117.042044,59.3801198 117.042044,60.5376048 C117.042044,61.6950898 116.102836,62.6334132 114.945597,62.6334132 C112.260947,62.6334132 110.992297,63.7298204 109.386419,65.1172455 C107.579881,66.6783234 105.331292,68.6214371 101.085688,68.6214371" id="Fill-5" fill="#FFFFFF"></path>
                <g id="Group-9" transform="translate(29.350254, 70.450898)">
                    <mask id="mask-2" fill="white">
                        <use xlink:href="#path-1"></use>
                    </mask>
                    <g id="Clip-8"></g>
                    <path d="M5.72719289,4.26706587 C5.08448223,4.26706587 4.54120305,4.80958084 4.54120305,5.45269461 L4.54120305,5.99820359 C4.54120305,6.64071856 5.08448223,7.18383234 5.72719289,7.18383234 L82.7350711,7.18383234 C83.3783807,7.18383234 83.9216599,6.64071856 83.9216599,5.99820359 L83.9216599,5.45269461 C83.9216599,4.80958084 83.3783807,4.26706587 82.7350711,4.26706587 L5.72719289,4.26706587 Z M82.7350711,11.3754491 L5.72719289,11.3754491 C2.7610203,11.3754491 0.348309645,8.96347305 0.348309645,5.99820359 L0.348309645,5.45269461 C0.348309645,2.48742515 2.7610203,0.0754491018 5.72719289,0.0754491018 L82.7350711,0.0754491018 C85.7018426,0.0754491018 88.1145533,2.48742515 88.1145533,5.45269461 L88.1145533,5.99820359 C88.1145533,8.96347305 85.7018426,11.3754491 82.7350711,11.3754491 L82.7350711,11.3754491 Z" id="Fill-7" fill="#FFFFFF" mask="url(#mask-2)"></path>
                </g>
                <g id="Group-12" transform="translate(0.000000, 0.391018)">
                    <mask id="mask-4" fill="white">
                        <use xlink:href="#path-3"></use>
                    </mask>
                    <g id="Clip-11"></g>
                    <path d="M55.5845289,28.0135928 L30.9375036,28.0135928 L30.9375036,7.65131737 C30.9375036,6.74233533 30.3510975,5.93694611 29.4861635,5.65730539 L12.9422041,0.31 C11.8412701,-0.0456886228 10.6582751,0.557904192 10.3018792,1.6597006 C9.94608223,2.7608982 10.5498589,3.94233533 11.6513919,4.29862275 L26.7446102,9.17646707 L26.7446102,28.0135928 L2.0963868,28.0135928 C0.939148223,28.0135928 -5.98984772e-05,28.9519162 -5.98984772e-05,30.1094012 C-5.98984772e-05,31.2668862 0.939148223,32.2052096 2.0963868,32.2052096 L5.36265076,32.2052096 C5.3650467,32.2459281 5.36025482,32.2848503 5.3650467,32.3261677 L13.3884477,97.5608982 C13.5178284,98.6117964 14.4103157,99.401018 15.4687218,99.401018 L29.8671178,99.401018 C31.0249553,99.401018 31.9635645,98.4626946 31.9635645,97.3052096 C31.9635645,96.1483234 31.0249553,95.2094012 29.8671178,95.2094012 L17.3231787,95.2094012 L9.57471168,32.2052096 L55.5845289,32.2052096 C56.7423665,32.2052096 57.6809756,31.2668862 57.6809756,30.1094012 C57.6809756,28.9519162 56.7423665,28.0135928 55.5845289,28.0135928" id="Fill-10" fill="#FFFFFF" mask="url(#mask-4)"></path>
                </g>
            </g>
        </g>
    </g>
</svg>