<?xml version="1.0" encoding="UTF-8"?>
<svg width="180px" height="180px" viewBox="0 0 180 180" version="1.1" xmlns="http://www.w3.org/2000/svg" xmlns:xlink="http://www.w3.org/1999/xlink">
    <!-- Generator: Sketch 43.1 (39012) - http://www.bohemiancoding.com/sketch -->
    <title>food</title>
    <desc>Created with Sketch.</desc>
    <defs>
        <polygon id="path-1" points="0 83 140.4732 83 140.4732 0 0 0"></polygon>
    </defs>
    <g id="Page-1" stroke="none" stroke-width="1" fill="none" fill-rule="evenodd">
        <g id="food">
            <g id="Page-1" transform="translate(20.000000, 49.000000)">
                <mask id="mask-2" fill="white">
                    <use xlink:href="#path-1"></use>
                </mask>
                <g id="Clip-2"></g>
                <path d="M120.86202,21.9934362 C119.85762,26.2216246 117.16782,35.3486174 111.10182,44.4274942 C100.11822,60.8681101 83.85762,69.2041971 62.77302,69.2041971 C54.83082,69.2041971 47.57442,68.019342 41.02482,65.665871 C40.84122,65.565429 40.64502,65.4860377 40.43322,65.4445377 C29.90982,61.5230884 21.23802,54.5462768 14.52762,44.5550014 C8.42082,35.4610884 5.69982,26.2486899 4.68582,21.9934362 L62.77302,21.9934362 L69.36462,21.9934362 C69.36762,21.9934362 69.36942,21.9940377 69.37242,21.9940377 C69.37482,21.9940377 69.37722,21.9934362 69.38022,21.9934362 L81.96582,21.9934362 C81.96822,21.9934362 81.96942,21.9940377 81.97182,21.9940377 C81.97422,21.9940377 81.97722,21.9934362 81.97962,21.9934362 L120.86202,21.9934362 Z M86.47302,78.7900957 L42.12942,78.7900957 L42.12942,70.4155159 C48.11622,72.2926391 54.95862,73.414342 62.77302,73.414342 C71.95242,73.414342 79.78842,71.8632043 86.47302,69.3599725 L86.47302,78.7900957 Z M67.21722,16.9899797 L62.59302,17.7832913 L28.28922,17.7832913 C37.07202,15.2048783 50.93322,12.9873348 67.21722,16.9899797 L67.21722,16.9899797 Z M140.44302,6.56145072 C140.24742,5.4162913 139.16802,4.64523333 138.01842,4.8413058 L110.19402,9.61561014 L128.18502,4.11836377 C129.29442,3.77974783 129.91962,2.60331304 129.58122,1.49123333 C129.24282,0.379153623 128.06982,-0.246955072 126.96042,0.0916608696 L77.34342,15.2523928 L76.48062,15.4003493 C59.93502,9.45261739 45.38442,10.002342 35.66142,11.6990304 C25.36842,13.494958 18.51162,16.8065377 16.64442,17.7832913 L2.09982,17.7832913 C1.48662,17.7832913 0.90342,18.0521391 0.50442,18.5200667 C0.10542,18.9873928 -0.06978,19.6062841 0.02502,20.2143493 C0.11022,20.757458 2.20662,33.6795957 10.95282,46.7701391 C16.27062,54.7291174 24.78882,63.6883058 37.92942,68.9257261 L37.92942,80.8951681 C37.92942,82.0571681 38.87022,83.0002406 40.02942,83.0002406 L88.57302,83.0002406 C89.73222,83.0002406 90.67302,82.0571681 90.67302,80.8951681 L90.67302,67.5983275 C102.09162,62.2592623 109.69962,54.0933855 114.59202,46.7701391 C123.33822,33.6795957 125.43462,20.757458 125.51982,20.2143493 C125.61462,19.6062841 125.43942,18.9873928 125.04042,18.5200667 C124.64142,18.0521391 124.05822,17.7832913 123.44502,17.7832913 L87.48822,17.7832913 L138.72702,8.99190725 C139.87062,8.79583478 140.63862,7.70721159 140.44302,6.56145072 L140.44302,6.56145072 Z" id="Fill-1" fill="#FFFFFF" mask="url(#mask-2)"></path>
            </g>
        </g>
    </g>
</svg>